<?xml version="1.0" encoding="iso-8859-1"?>
<!-- Generator: Adobe Illustrator 19.0.0, SVG Export Plug-In . SVG Version: 6.00 Build 0)  -->
<svg version="1.1" id="Capa_1" xmlns="http://www.w3.org/2000/svg" xmlns:xlink="http://www.w3.org/1999/xlink" x="0px" y="0px"
	 viewBox="0 0 512 512" style="enable-background:new 0 0 512 512;" xml:space="preserve">
<path style="fill:#FF0C38;" d="M255.995,139.647c0,0-72.636-43.875-239.923-29.685C6.976,110.734,0,118.374,0,127.502v269.724
	c0,10.285,8.786,18.376,19.038,17.543c119.401-9.704,189.997,10.261,219.957,22.073c10.928,4.308,23.073,4.308,34.001,0
	c29.961-11.812,100.56-31.777,219.961-22.073c10.251,0.833,19.038-7.259,19.038-17.543V127.502c0-9.128-6.976-16.768-16.072-17.54
	C328.635,95.772,255.995,139.647,255.995,139.647z"/>
<path style="fill:#FF3F62;" d="M256,121.898c0,0-72.636-43.875-239.923-29.685c-9.095,0.772-16.072,8.411-16.072,17.54v269.724
	c0,10.285,8.786,18.376,19.038,17.543C138.444,387.316,209.04,407.281,239,419.093c10.928,4.308,23.073,4.308,34.001,0
	c29.961-11.812,100.56-31.777,219.961-22.073c10.251,0.833,19.038-7.259,19.038-17.543V109.753c0-9.128-6.976-16.768-16.072-17.54
	C328.64,78.024,256,121.898,256,121.898z"/>
<path style="fill:#D80027;" d="M98.483,107.381c-24.4-0.666-51.81-0.022-82.413,2.576C6.975,110.729,0,118.369,0,127.496V397.22
	c0,10.285,8.787,18.376,19.039,17.543c29.401-2.39,55.84-2.979,79.444-2.335V107.381z"/>
<path style="fill:#FF0C38;" d="M98.483,89.632c-24.398-0.666-51.808-0.022-82.408,2.576c-9.094,0.772-16.07,8.412-16.07,17.54
	v269.724c0,10.285,8.787,18.376,19.039,17.543c29.399-2.39,55.837-2.979,79.439-2.335C98.483,394.68,98.483,89.632,98.483,89.632z"
	/>
<path style="fill:#96C8EF;" d="M256,125.456c0,0-66.313-40.055-218.975-27.388c-9.14,0.758-16.187,8.38-16.187,17.551V360.52
	c0,10.285,8.782,18.358,19.035,17.545c108.748-8.617,173.119,9.6,200.51,20.4c10.039,3.958,21.195,3.958,31.234,0
	c27.394-10.799,91.766-29.018,200.515-20.401c10.252,0.813,19.035-7.26,19.035-17.545v-244.9c0-9.172-7.047-16.793-16.187-17.551
	C322.317,85.401,256,125.456,256,125.456z"/>
<g>
	<path style="fill:#78B9EB;" d="M358.56,98.591C287.961,106.162,256,125.456,256,125.456l-0.003-0.002V401.43
		c5.303,0,10.607-0.989,15.628-2.968c15.953-6.288,44.449-15.089,86.935-19.645V98.591z"/>
	<path style="fill:#78B9EB;" d="M127.639,96.497c-25.939-1.46-56.054-1.3-90.613,1.568c-9.141,0.758-16.189,8.378-16.189,17.551
		v244.901c0,10.283,8.78,18.358,19.033,17.545c33.367-2.644,62.546-2.76,87.77-1.341V96.497H127.639z"/>
</g>
<path style="fill:#B9D8F4;" d="M256,101.792c0,0-63.861-38.575-210.52-28.044C31.581,74.747,20.837,86.365,20.837,100.3v236.554
	c0,10.285,8.782,18.358,19.035,17.545c108.748-8.617,173.119,9.6,200.51,20.4c10.039,3.958,21.195,3.958,31.234,0
	c27.394-10.799,91.766-29.018,200.515-20.401c10.252,0.813,19.035-7.26,19.035-17.545V91.955c0-9.172-7.047-16.793-16.187-17.551
	C322.317,61.736,256,101.792,256,101.792z"/>
<path style="fill:#D1E7F8;" d="M256,101.792c-0.008-0.005-63.824-38.546-210.364-28.054c-13.957,0.999-24.799,12.569-24.799,26.563
	v226.856c0,15.424,13.07,27.581,28.46,26.555c103.046-6.87,164.483,10.601,191.078,21.085c5.02,1.979,10.322,2.969,15.625,2.969
	V101.792z"/>
<path style="fill:#96C8EF;" d="M358.56,74.925C287.961,82.496,256,101.79,256,101.79l-0.003-0.002v275.976
	c5.303,0,10.607-0.989,15.628-2.969c15.953-6.288,44.449-15.089,86.935-19.645V74.925z"/>
<path style="fill:#B9D8F4;" d="M127.227,72.809c-23.665-1.313-50.794-1.279-81.591,0.925c-13.957,0.999-24.799,12.569-24.799,26.563
	v226.856c0,15.424,13.07,27.581,28.46,26.555c29.288-1.953,55.209-1.938,77.93-0.677C127.227,353.032,127.227,72.809,127.227,72.809
	z"/>
<g>
	<path style="fill:#006D5D;" d="M227.769,135.534c-32.65-10.705-89.897-22.909-178.318-16.972c-4.251,0.293-7.941-2.933-8.226-7.191
		c-0.286-4.258,2.934-7.941,7.191-8.226c90.96-6.114,150.433,6.282,184.31,17.753c4.041,1.369,6.208,5.755,4.84,9.797
		C236.475,133.913,233.851,137.528,227.769,135.534z"/>
	<path style="fill:#006D5D;" d="M227.77,169.771c-32.571-10.941-89.897-22.909-178.318-16.971c-4.251,0.279-7.941-2.934-8.226-7.192
		c-0.286-4.258,2.934-7.941,7.191-8.226c90.958-6.111,150.433,6.282,184.31,17.752c4.041,1.369,6.209,5.755,4.841,9.796
		C236.475,168.15,232.478,171.352,227.77,169.771z"/>
	<path style="fill:#006D5D;" d="M227.769,204.008c-32.598-10.861-89.897-22.909-178.318-16.972
		c-4.251,0.293-7.941-2.933-8.226-7.191c-0.286-4.258,2.934-7.941,7.191-8.226c90.96-6.112,150.433,6.282,184.31,17.753
		c4.041,1.369,6.208,5.755,4.84,9.797C236.475,202.387,232.821,205.691,227.769,204.008z"/>
	<path style="fill:#006D5D;" d="M227.77,238.245c-32.415-11.399-89.902-22.906-178.318-16.972c-4.251,0.293-7.941-2.933-8.226-7.191
		c-0.286-4.258,2.934-7.941,7.191-8.226c90.96-6.111,150.433,6.282,184.31,17.752c4.041,1.369,6.209,5.755,4.841,9.796
		C236.475,236.624,233.336,240.202,227.77,238.245z"/>
	<path style="fill:#006D5D;" d="M227.769,272.483c-32.569-10.946-89.897-22.907-178.318-16.972
		c-4.251,0.294-7.941-2.934-8.226-7.191c-0.286-4.258,2.934-7.941,7.191-8.226c90.96-6.113,150.433,6.282,184.31,17.753
		c4.041,1.369,6.157,5.738,4.84,9.797C235.911,272.737,231.104,273.603,227.769,272.483z"/>
	<path style="fill:#006D5D;" d="M227.77,306.719c-32.329-11.638-89.897-22.91-178.318-16.971c-4.251,0.28-7.941-2.934-8.226-7.192
		c-0.286-4.258,2.934-7.941,7.191-8.226c90.958-6.111,150.433,6.282,184.31,17.752c4.041,1.369,6.209,5.755,4.841,9.796
		C236.475,305.099,232.821,308.538,227.77,306.719z"/>
	<path style="fill:#006D5D;" d="M227.769,340.957c-32.218-11.941-89.897-22.908-178.318-16.972
		c-4.251,0.294-7.941-2.934-8.226-7.191c-0.286-4.258,2.934-7.941,7.191-8.226c90.96-6.114,150.433,6.282,184.31,17.753
		c4.041,1.369,6.208,5.755,4.84,9.797C236.475,339.336,234.109,343.307,227.769,340.957z"/>
	<path style="fill:#006D5D;" d="M275.608,130.694c-1.369-4.041,0.797-8.428,4.84-9.796c33.874-11.472,93.347-23.863,184.31-17.753
		c4.258,0.285,7.477,3.969,7.191,8.226c-0.286,4.259-3.966,7.48-8.227,7.191c-88.416-5.937-145.895,5.6-178.318,16.972
		C280.209,137.356,276.699,133.913,275.608,130.694z"/>
	<path style="fill:#006D5D;" d="M275.608,164.93c-1.053-4.135,0.797-8.428,4.84-9.796c33.875-11.47,93.349-23.863,184.31-17.752
		c4.258,0.285,7.477,3.969,7.191,8.226c-0.286,4.259-3.966,7.477-8.227,7.192c-88.416-5.939-145.773,5.951-178.318,16.971
		C284.583,170.049,277.462,172.21,275.608,164.93z"/>
	<path style="fill:#006D5D;" d="M275.608,199.168c-1.369-4.041,0.797-8.428,4.84-9.796c33.874-11.472,93.347-23.864,184.31-17.753
		c4.258,0.285,7.477,3.969,7.191,8.226c-0.286,4.259-3.966,7.486-8.227,7.191c-88.416-5.938-145.986,5.344-178.318,16.972
		C280.724,205.691,276.699,202.387,275.608,199.168z"/>
	<path style="fill:#006D5D;" d="M275.608,233.404c-1.369-4.041,0.797-8.428,4.84-9.796c33.875-11.471,93.349-23.862,184.31-17.752
		c4.258,0.285,7.477,3.969,7.191,8.226c-0.286,4.259-3.966,7.482-8.227,7.191c-88.416-5.938-145.823,5.803-178.318,16.972
		C280.209,240.031,276.699,236.625,275.608,233.404z"/>
	<path style="fill:#006D5D;" d="M275.608,267.642c-1.369-4.041,0.797-8.428,4.84-9.796c27.617-9.353,75.556-20.292,147.012-19.288
		c4.267,0.06,7.677,3.566,7.617,7.833c-0.06,4.23-3.507,7.618-7.723,7.618c-0.036,0-0.073,0-0.11,0
		c-69.272-0.963-115.679,8.64-141.839,18.473C280.381,274.37,276.699,270.862,275.608,267.642z"/>
</g>
<g>
</g>
<g>
</g>
<g>
</g>
<g>
</g>
<g>
</g>
<g>
</g>
<g>
</g>
<g>
</g>
<g>
</g>
<g>
</g>
<g>
</g>
<g>
</g>
<g>
</g>
<g>
</g>
<g>
</g>
</svg>
